<svg xmlns="http://www.w3.org/2000/svg" viewBox="0 0 480 260" role="img" aria-labelledby="title desc">
<title id="title">Data center placeholder</title>
<desc id="desc">Stylized dark data center rack placeholder for owner settings and recovery screens.</desc>
<defs>
  <linearGradient id="bg" x1="0%" y1="0%" x2="100%" y2="100%">
    <stop offset="0%" stop-color="#101214"/>
    <stop offset="100%" stop-color="#171c20"/>
  </linearGradient>
</defs>
<rect width="480" height="260" rx="26" fill="url(#bg)"/>
<rect x="88" y="54" width="86" height="156" rx="12" fill="#13191d" stroke="#38464d" stroke-width="4"/>
<rect x="197" y="54" width="86" height="156" rx="12" fill="#13191d" stroke="#38464d" stroke-width="4"/>
<rect x="306" y="54" width="86" height="156" rx="12" fill="#13191d" stroke="#38464d" stroke-width="4"/>
<g fill="#d7b55e">
  <rect x="106" y="78" width="50" height="6" rx="3"/>
  <rect x="106" y="114" width="50" height="6" rx="3"/>
  <rect x="106" y="150" width="50" height="6" rx="3"/>
  <rect x="215" y="78" width="50" height="6" rx="3"/>
  <rect x="215" y="114" width="50" height="6" rx="3"/>
  <rect x="215" y="150" width="50" height="6" rx="3"/>
  <rect x="324" y="78" width="50" height="6" rx="3"/>
  <rect x="324" y="114" width="50" height="6" rx="3"/>
  <rect x="324" y="150" width="50" height="6" rx="3"/>
</g>
<path d="M72 222h336" stroke="#5f8da2" stroke-width="4" opacity="0.7"/>
<rect x="40" y="26" width="152" height="28" rx="14" fill="#13191d" stroke="#36464d"/>
<text x="116" y="45" fill="#d7b55e" font-family="Segoe UI, Arial, sans-serif" font-size="13" font-weight="700" text-anchor="middle">PLATFORM BACKBONE</text>
</svg>
