<svg xmlns="http://www.w3.org/2000/svg" viewBox="0 0 480 260" role="img" aria-labelledby="title desc">
<title id="title">Network diagnostics placeholder</title>
<desc id="desc">Stylized control plane diagnostics graphic with links and telemetry lines.</desc>
<defs>
  <linearGradient id="bg" x1="0%" y1="0%" x2="100%" y2="100%">
    <stop offset="0%" stop-color="#101416"/>
    <stop offset="100%" stop-color="#1a1f22"/>
  </linearGradient>
  <linearGradient id="accent" x1="0%" y1="0%" x2="100%" y2="0%">
    <stop offset="0%" stop-color="#d7b55e"/>
    <stop offset="100%" stop-color="#5f8da2"/>
  </linearGradient>
</defs>
<rect width="480" height="260" rx="26" fill="url(#bg)"/>
<g stroke="#314048" stroke-width="2">
  <path d="M54 194L136 122 212 158 298 84 387 137" fill="none"/>
  <path d="M86 72h302"/>
  <path d="M86 92h262"/>
  <path d="M86 112h184"/>
</g>
<g fill="#172026" stroke="#3a4d56" stroke-width="3">
  <circle cx="54" cy="194" r="10"/>
  <circle cx="136" cy="122" r="12"/>
  <circle cx="212" cy="158" r="12"/>
  <circle cx="298" cy="84" r="14"/>
  <circle cx="387" cy="137" r="12"/>
</g>
<g fill="#d7b55e">
  <circle cx="54" cy="194" r="4"/>
  <circle cx="136" cy="122" r="4"/>
  <circle cx="212" cy="158" r="4"/>
  <circle cx="298" cy="84" r="4"/>
  <circle cx="387" cy="137" r="4"/>
</g>
<rect x="44" y="34" width="154" height="30" rx="15" fill="#131a1e" stroke="#314048"/>
<text x="121" y="54" fill="#d7b55e" font-family="Segoe UI, Arial, sans-serif" font-size="14" font-weight="700" text-anchor="middle">OWNER DIAGNOSTICS</text>
<path d="M88 215h120" stroke="url(#accent)" stroke-width="6" stroke-linecap="round"/>
<path d="M248 195h138" stroke="#5f8da2" stroke-width="6" stroke-linecap="round"/>
</svg>
