<svg width="720" height="420" viewBox="0 0 720 420" fill="none" xmlns="http://www.w3.org/2000/svg">
  <rect width="720" height="420" rx="32" fill="#0C1015"/>
  <rect x="34" y="36" width="652" height="348" rx="28" fill="url(#bg)" stroke="url(#stroke)"/>
  <rect x="72" y="76" width="194" height="268" rx="24" fill="#13161E" stroke="rgba(255,255,255,.08)"/>
  <rect x="286" y="76" width="364" height="126" rx="24" fill="#121720" stroke="rgba(255,255,255,.08)"/>
  <rect x="286" y="220" width="170" height="124" rx="24" fill="#12161D" stroke="rgba(255,255,255,.08)"/>
  <rect x="480" y="220" width="170" height="124" rx="24" fill="#11161D" stroke="rgba(255,255,255,.08)"/>
  <g opacity=".96">
    <circle cx="169" cy="136" r="42" fill="#171F29"/>
    <circle cx="169" cy="136" r="22" fill="#F4C56B" fill-opacity=".18" stroke="#F4C56B" stroke-opacity=".48"/>
    <path d="M138 210H228" stroke="#F4C56B" stroke-width="6" stroke-linecap="round"/>
    <path d="M138 236H214" stroke="#FFFFFF" stroke-opacity=".22" stroke-width="6" stroke-linecap="round"/>
    <path d="M138 262H194" stroke="#7EC6FF" stroke-width="6" stroke-linecap="round" opacity=".84"/>
    <path d="M326 166C360 124 404 104 458 104C510 104 553 124 586 166" stroke="#F4C56B" stroke-width="5" stroke-linecap="round"/>
    <path d="M334 154L360 178L393 141L429 173L468 124L508 164L544 129L579 160" stroke="#68E5FF" stroke-width="4" stroke-linecap="round" stroke-linejoin="round"/>
    <rect x="320" y="238" width="104" height="18" rx="9" fill="#F4C56B" fill-opacity=".16"/>
    <rect x="320" y="270" width="112" height="12" rx="6" fill="#FFFFFF" fill-opacity=".22"/>
    <rect x="320" y="294" width="84" height="12" rx="6" fill="#68E5FF" fill-opacity=".18"/>
    <rect x="514" y="246" width="96" height="18" rx="9" fill="#68E5FF" fill-opacity=".18"/>
    <rect x="514" y="278" width="82" height="12" rx="6" fill="#FFFFFF" fill-opacity=".22"/>
    <rect x="514" y="302" width="108" height="12" rx="6" fill="#F4C56B" fill-opacity=".16"/>
  </g>
  <defs>
    <linearGradient id="bg" x1="34" y1="36" x2="686" y2="384" gradientUnits="userSpaceOnUse">
      <stop stop-color="#17111B"/>
      <stop offset="1" stop-color="#0E1117"/>
    </linearGradient>
    <linearGradient id="stroke" x1="92" y1="42" x2="654" y2="382" gradientUnits="userSpaceOnUse">
      <stop stop-color="#F4C56B" stop-opacity=".28"/>
      <stop offset="1" stop-color="#68E5FF" stop-opacity=".18"/>
    </linearGradient>
  </defs>
</svg>
