<svg width="720" height="420" viewBox="0 0 720 420" fill="none" xmlns="http://www.w3.org/2000/svg">
  <rect width="720" height="420" rx="32" fill="#081015"/>
  <rect x="34" y="36" width="652" height="348" rx="28" fill="url(#bg)" stroke="url(#stroke)"/>
  <rect x="72" y="76" width="256" height="268" rx="24" fill="#0F171D" stroke="rgba(255,255,255,.08)"/>
  <rect x="350" y="76" width="300" height="118" rx="24" fill="#10161D" stroke="rgba(255,255,255,.08)"/>
  <rect x="350" y="214" width="300" height="130" rx="24" fill="#10161C" stroke="rgba(255,255,255,.08)"/>
  <g opacity=".96">
    <circle cx="200" cy="156" r="58" fill="#122027"/>
    <path d="M200 114C226 114 248 136 248 162C248 188 226 210 200 210C174 210 152 188 152 162" stroke="#68E5FF" stroke-width="6" stroke-linecap="round"/>
    <path d="M168 136L152 162L183 162" stroke="#68E5FF" stroke-width="6" stroke-linecap="round" stroke-linejoin="round"/>
    <circle cx="200" cy="162" r="18" fill="#F4C56B" fill-opacity=".18" stroke="#F4C56B" stroke-opacity=".42"/>
    <path d="M386 120H596" stroke="#68E5FF" stroke-width="6" stroke-linecap="round"/>
    <path d="M386 146H562" stroke="#FFFFFF" stroke-opacity=".22" stroke-width="6" stroke-linecap="round"/>
    <path d="M386 172H526" stroke="#F4C56B" stroke-width="6" stroke-linecap="round" opacity=".88"/>
    <path d="M390 256H610" stroke="#F4C56B" stroke-width="4" stroke-linecap="round" stroke-dasharray="6 12"/>
    <rect x="390" y="274" width="94" height="18" rx="9" fill="#68E5FF" fill-opacity=".18"/>
    <rect x="390" y="306" width="124" height="12" rx="6" fill="#FFFFFF" fill-opacity=".22"/>
    <circle cx="576" cy="282" r="38" fill="#132028"/>
    <path d="M576 252L600 282L576 312L552 282L576 252Z" fill="#68E5FF" fill-opacity=".18" stroke="#68E5FF" stroke-opacity=".42"/>
    <circle cx="576" cy="282" r="10" fill="#F4C56B"/>
  </g>
  <defs>
    <linearGradient id="bg" x1="34" y1="36" x2="686" y2="384" gradientUnits="userSpaceOnUse">
      <stop stop-color="#0E171D"/>
      <stop offset="1" stop-color="#081015"/>
    </linearGradient>
    <linearGradient id="stroke" x1="74" y1="44" x2="654" y2="382" gradientUnits="userSpaceOnUse">
      <stop stop-color="#68E5FF" stop-opacity=".26"/>
      <stop offset="1" stop-color="#F4C56B" stop-opacity=".18"/>
    </linearGradient>
  </defs>
</svg>
